<svg width="108" height="150" viewBox="0 0 108 150" fill="none" xmlns="http://www.w3.org/2000/svg">
<path d="M69.375 18.75C92.2575 18.75 111.146 35.8275 114.004 57.9281L126.66 77.835C127.493 79.1456 127.324 81.0975 125.394 81.93L114.375 86.6437V103.125C114.375 109.341 109.341 114.375 103.125 114.375H91.8806L91.875 131.25H41.25V110.471C41.25 103.834 38.7975 97.5506 34.2525 91.8806C28.0706 84.1744 24.375 74.3925 24.375 63.75C24.375 38.8987 44.5237 18.75 69.375 18.75ZM69.375 46.875C66.27 46.875 63.75 49.395 63.75 52.5V58.1194L58.125 58.125C55.02 58.125 52.5 60.645 52.5 63.75C52.5 66.855 55.02 69.375 58.125 69.375L63.75 69.3694V75C63.75 78.105 66.27 80.625 69.375 80.625C72.48 80.625 75 78.105 75 75V69.375H80.625C83.73 69.375 86.25 66.855 86.25 63.75C86.25 60.645 83.73 58.125 80.625 58.125H75V52.5C75 49.395 72.48 46.875 69.375 46.875Z" fill="#EBEBEB"/>
</svg>
