<svg width="150" height="150" viewBox="0 0 150 150" fill="none" xmlns="http://www.w3.org/2000/svg">
<path d="M28.7794 23.3962L75 13.125L121.221 23.3962C122.47 23.6739 123.587 24.3692 124.388 25.3673C125.188 26.3654 125.625 27.6067 125.625 28.8862V85.0631C125.625 90.6191 124.253 96.0891 121.631 100.988C119.009 105.886 115.218 110.061 110.595 113.143L75 136.875L39.405 113.143C34.7828 110.062 30.9926 105.887 28.3707 100.99C25.7488 96.0926 24.3763 90.6238 24.375 85.0687V28.8862C24.3752 27.6067 24.8117 26.3654 25.6124 25.3673C26.4132 24.3692 27.5303 23.6739 28.7794 23.3962V23.3962ZM75 83.4375L91.5319 92.1281L88.3763 73.7231L101.747 60.6844L83.2631 57.9956L75 41.25L66.7313 57.9956L48.2531 60.6844L61.6238 73.7231L58.4738 92.1281L75 83.4375Z" fill="#EBF8FF"/>
</svg>
