<svg width="150" height="150" viewBox="0 0 150 150" fill="none" xmlns="http://www.w3.org/2000/svg">
<path d="M75 69.375C82.4592 69.375 89.6129 72.3382 94.8874 77.6126C100.162 82.8871 103.125 90.0408 103.125 97.5V131.25H46.875V97.5C46.875 90.0408 49.8382 82.8871 55.1126 77.6126C60.3871 72.3382 67.5408 69.375 75 69.375ZM37.245 86.2838C36.3498 89.3032 35.821 92.4193 35.67 95.565L35.625 97.5V131.25H18.75V105.938C18.7489 101.086 20.5389 96.4056 23.7767 92.7931C27.0145 89.1805 31.4721 86.8906 36.2944 86.3625L37.2506 86.2838H37.245ZM112.755 86.2838C117.761 86.5889 122.462 88.7923 125.898 92.4444C129.335 96.0966 131.249 100.922 131.25 105.938V131.25H114.375V97.5C114.375 93.6019 113.813 89.8388 112.755 86.2838ZM38.4375 52.5C42.1671 52.5 45.744 53.9816 48.3812 56.6188C51.0184 59.256 52.5 62.8329 52.5 66.5625C52.5 70.2921 51.0184 73.869 48.3812 76.5062C45.744 79.1434 42.1671 80.625 38.4375 80.625C34.7079 80.625 31.131 79.1434 28.4938 76.5062C25.8566 73.869 24.375 70.2921 24.375 66.5625C24.375 62.8329 25.8566 59.256 28.4938 56.6188C31.131 53.9816 34.7079 52.5 38.4375 52.5V52.5ZM111.563 52.5C115.292 52.5 118.869 53.9816 121.506 56.6188C124.143 59.256 125.625 62.8329 125.625 66.5625C125.625 70.2921 124.143 73.869 121.506 76.5062C118.869 79.1434 115.292 80.625 111.563 80.625C107.833 80.625 104.256 79.1434 101.619 76.5062C98.9816 73.869 97.5 70.2921 97.5 66.5625C97.5 62.8329 98.9816 59.256 101.619 56.6188C104.256 53.9816 107.833 52.5 111.563 52.5V52.5ZM75 18.75C80.9674 18.75 86.6903 21.1205 90.9099 25.3401C95.1295 29.5597 97.5 35.2826 97.5 41.25C97.5 47.2174 95.1295 52.9403 90.9099 57.1599C86.6903 61.3795 80.9674 63.75 75 63.75C69.0326 63.75 63.3097 61.3795 59.0901 57.1599C54.8705 52.9403 52.5 47.2174 52.5 41.25C52.5 35.2826 54.8705 29.5597 59.0901 25.3401C63.3097 21.1205 69.0326 18.75 75 18.75V18.75Z" fill="#E4FBF8"/>
</svg>
