<svg width="221" height="48" viewBox="0 0 221 48" fill="none" xmlns="http://www.w3.org/2000/svg">
<path d="M28.5329 27.852C30.7937 27.852 33.0036 27.1815 34.8833 25.9254C36.763 24.6693 38.2279 22.8839 39.0928 20.7951C39.9577 18.7064 40.1837 16.408 39.7423 14.1908C39.3008 11.9736 38.2118 9.93704 36.6128 8.33883C35.0138 6.74062 32.9768 5.6525 30.7593 5.21212C28.5419 4.77173 26.2436 4.99885 24.1553 5.86475C22.0669 6.73065 20.2823 8.19644 19.0271 10.0767C17.7718 11.957 17.1024 14.1673 17.1035 16.428C17.1035 17.9287 17.3992 19.4147 17.9736 20.801C18.5481 22.1874 19.3901 23.447 20.4514 24.5079C21.5128 25.5688 22.7728 26.4102 24.1595 26.9839C25.5461 27.5577 27.0322 27.8527 28.5329 27.852V27.852Z" fill="#FFCD00"/>
<path d="M28.6036 33.5636H28.5653C24.7543 33.5627 21.0521 32.2925 18.0431 29.9537C15.0342 27.6148 12.8899 24.3405 11.9487 20.6475C11.3747 18.3627 9.5163 16.4277 7.16046 16.4277H0C0 24.0037 3.00955 31.2694 8.36658 36.6265C13.7236 41.9835 20.9893 44.993 28.5653 44.993H28.6036V33.5636Z" fill="#00ECBB"/>
<path d="M28.5322 33.5636H28.565C32.3763 33.5636 36.0789 32.2938 39.0881 29.9548C42.0972 27.6158 44.2413 24.3409 45.1817 20.6475C45.7611 18.3627 47.6195 16.4277 49.9753 16.4277H57.1358C57.1343 24.0042 54.1236 31.2699 48.7657 36.6268C43.4078 41.9837 36.1415 44.993 28.565 44.993H28.5322V33.5636Z" fill="#AF64FF"/>
<path d="M48.7673 36.6246C46.1148 39.2774 42.9657 41.3818 39.4998 42.8175C36.0339 44.2532 32.3192 44.9921 28.5678 44.9921C24.8163 44.9921 21.1016 44.2532 17.6357 42.8175C14.1699 41.3818 11.0207 39.2774 8.36816 36.6246L16.4469 28.5459C19.6623 31.7592 24.022 33.5643 28.5678 33.5643C33.1135 33.5643 37.4733 31.7592 40.6886 28.5459L48.7673 36.6246Z" fill="#7131FF"/>
<path fill-rule="evenodd" clip-rule="evenodd" d="M199.432 15.8549H202.575V29.2357H199.432V15.8549ZM201.018 13.6685C200.487 13.6807 199.973 13.4845 199.586 13.1219C199.398 12.9512 199.25 12.7424 199.15 12.5096C199.05 12.2767 199.001 12.0252 199.006 11.7718C199.003 11.5252 199.053 11.2807 199.153 11.0552C199.253 10.8298 199.4 10.6286 199.586 10.4654C199.776 10.2844 200.001 10.1429 200.247 10.0491C200.493 9.95531 200.755 9.91104 201.018 9.91885C201.548 9.90955 202.061 10.1054 202.45 10.4654C202.635 10.6224 202.783 10.8186 202.883 11.0398C202.983 11.261 203.033 11.5017 203.029 11.7445C203.033 12.0058 202.984 12.2651 202.884 12.5067C202.785 12.7482 202.637 12.9669 202.45 13.1493C202.257 13.3247 202.031 13.4597 201.785 13.5461C201.539 13.6325 201.278 13.6685 201.018 13.6521V13.6685ZM194.803 29.4106C194.529 29.4167 194.256 29.3668 194.002 29.264C193.748 29.1612 193.517 29.0077 193.324 28.8128C193.131 28.6179 192.98 28.3857 192.88 28.1304C192.78 27.8751 192.733 27.6021 192.742 27.328C192.732 27.0514 192.778 26.7755 192.878 26.5172C192.978 26.2588 193.128 26.0233 193.321 25.8249C193.518 25.6365 193.751 25.4888 194.005 25.3903C194.259 25.2918 194.53 25.2445 194.803 25.251C195.077 25.2441 195.349 25.2933 195.603 25.3955C195.857 25.4976 196.088 25.6507 196.281 25.8451C196.474 26.0396 196.625 26.2715 196.725 26.5265C196.825 26.7815 196.872 27.0542 196.863 27.328C196.873 27.6023 196.827 27.8757 196.727 28.1313C196.627 28.387 196.476 28.6195 196.283 28.8145C196.09 29.0096 195.859 29.1631 195.605 29.2656C195.35 29.3681 195.077 29.4175 194.803 29.4106V29.4106ZM208.561 28.536C209.703 29.11 210.964 29.409 212.242 29.409C213.52 29.409 214.781 29.11 215.923 28.536C216.981 27.9783 217.861 27.1358 218.465 26.1037C219.09 25.0232 219.411 23.7936 219.394 22.5453C219.415 21.3053 219.093 20.0837 218.465 19.0143C217.858 17.9788 216.972 17.1357 215.907 16.5819C214.765 16.0079 213.504 15.709 212.226 15.709C210.947 15.709 209.687 16.0079 208.544 16.5819C207.482 17.1403 206.594 17.9823 205.981 19.0143C205.365 20.0877 205.051 21.3079 205.073 22.5453C205.054 23.791 205.367 25.0193 205.981 26.1037C206.601 27.1359 207.494 27.9775 208.561 28.536V28.536ZM215.093 25.5789C214.321 26.3154 213.295 26.7263 212.228 26.7263C211.162 26.7263 210.136 26.3154 209.364 25.5789C208.991 25.1701 208.703 24.6917 208.515 24.1711C208.328 23.6505 208.245 23.098 208.271 22.5453C208.245 21.9926 208.328 21.4401 208.515 20.9195C208.703 20.3989 208.991 19.9205 209.364 19.5117C210.134 18.7715 211.16 18.358 212.228 18.358C213.296 18.358 214.323 18.7715 215.093 19.5117C215.475 19.9157 215.772 20.3924 215.966 20.9136C216.161 21.4347 216.248 21.9896 216.224 22.5453C216.248 23.101 216.161 23.6559 215.966 24.177C215.772 24.6982 215.475 25.1749 215.093 25.5789V25.5789ZM126.265 28.5032C125.866 28.819 125.406 29.048 124.915 29.1756C124.381 29.3263 123.829 29.4017 123.275 29.3997C122.036 29.4796 120.816 29.067 119.88 28.2518C119.459 27.8103 119.135 27.2856 118.929 26.7113C118.723 26.1371 118.639 25.5261 118.683 24.9175V13.0071H121.799V16.0408H125.368V18.5333H121.799V24.8574C121.764 25.3969 121.934 25.9298 122.274 26.3496C122.456 26.5235 122.672 26.6576 122.908 26.7433C123.144 26.8289 123.396 26.8643 123.646 26.847C124.275 26.8685 124.891 26.6757 125.396 26.3004L126.265 28.5032ZM81.2303 29.3997C79.9387 29.4202 78.6619 29.1217 77.5134 28.5306C76.4491 27.9798 75.5594 27.1431 74.9444 26.1146C74.3202 25.0418 74.0008 23.819 74.0206 22.5781C73.9985 21.3455 74.3183 20.1309 74.9444 19.0689C75.5533 18.0452 76.4328 17.2093 77.486 16.653C78.6435 16.0594 79.9297 15.7608 81.2303 15.7839C82.4268 15.7574 83.6109 16.0318 84.6738 16.5819C85.6465 17.0894 86.4302 17.8962 86.9094 18.8831L84.5317 20.3042C84.1878 19.7127 83.6863 19.2283 83.0832 18.9049C82.5088 18.5904 81.8633 18.4285 81.2084 18.4349C80.674 18.418 80.1418 18.5106 79.6445 18.7071C79.1472 18.9035 78.6954 19.1997 78.3169 19.5773C77.928 19.9728 77.6252 20.4446 77.4277 20.963C77.2301 21.4813 77.1421 22.035 77.169 22.589C77.1391 23.1429 77.2204 23.6972 77.4082 24.2192C77.5959 24.7411 77.8863 25.2202 78.2622 25.6281C78.9005 26.2193 79.7039 26.602 80.5652 26.725C81.4265 26.8481 82.3049 26.7057 83.0832 26.3168C83.679 25.9861 84.1783 25.5056 84.5317 24.923L86.9094 26.3168C86.4043 27.299 85.6134 28.1051 84.641 28.629C83.5887 29.1688 82.4182 29.4375 81.2357 29.4106L81.2303 29.3997ZM106.92 28.9788C107.954 29.2583 109.02 29.3998 110.091 29.3997C111.955 29.3997 113.43 29.028 114.507 28.3065C115.014 27.9922 115.432 27.5524 115.719 27.0295C116.006 26.5067 116.154 25.9186 116.147 25.322C116.196 24.5229 115.927 23.7368 115.398 23.1356C114.92 22.6276 114.32 22.2511 113.655 22.0424C112.794 21.7968 111.918 21.6142 111.031 21.4958C110.228 21.3514 109.44 21.1356 108.675 20.8508C108.448 20.7757 108.251 20.6281 108.116 20.4306C107.981 20.2331 107.914 19.9967 107.926 19.7576C107.926 19.5282 107.991 19.3033 108.114 19.1096C108.237 18.9159 108.412 18.7614 108.62 18.6644C109.273 18.3479 109.995 18.2031 110.719 18.2436C112.061 18.2226 113.384 18.5665 114.546 19.2384L115.748 16.8716C115.046 16.4836 114.288 16.207 113.502 16.0517C112.606 15.8406 111.689 15.7324 110.769 15.7292C109.254 15.6525 107.754 16.052 106.478 16.8716C105.983 17.2002 105.58 17.6488 105.305 18.1754C105.031 18.7021 104.895 19.2897 104.909 19.8834C104.859 20.7065 105.125 21.5177 105.652 22.1517C106.154 22.6571 106.771 23.0324 107.451 23.2449C108.335 23.4983 109.235 23.69 110.145 23.8189C110.918 23.9185 111.68 24.0924 112.419 24.3381C112.63 24.3975 112.816 24.5252 112.946 24.7013C113.077 24.8774 113.145 25.0919 113.141 25.3111C113.141 26.2913 112.21 26.7796 110.348 26.776C109.503 26.7718 108.664 26.656 107.85 26.4316C107.091 26.2147 106.369 25.8869 105.707 25.4587L104.51 27.8255C105.251 28.349 106.075 28.7427 106.948 28.9897L106.92 28.9788ZM130.714 28.5306C131.848 29.102 133.101 29.3996 134.371 29.3996C135.641 29.3996 136.893 29.102 138.027 28.5306C139.076 27.975 139.948 27.1384 140.547 26.1146C141.169 25.0408 141.488 23.8187 141.471 22.5781C141.49 21.3458 141.171 20.132 140.547 19.0689C139.948 18.0451 139.076 17.2085 138.027 16.653C136.893 16.0816 135.641 15.7839 134.371 15.7839C133.101 15.7839 131.848 16.0816 130.714 16.653C129.661 17.2119 128.781 18.0471 128.167 19.0689C127.559 20.1374 127.25 21.3493 127.27 22.5781C127.252 23.8154 127.561 25.0355 128.167 26.1146C128.786 27.1441 129.677 27.9836 130.741 28.5415L130.714 28.5306ZM137.202 25.5899C136.438 26.3263 135.418 26.7378 134.357 26.7378C133.296 26.7378 132.276 26.3263 131.512 25.5899C131.14 25.185 130.851 24.7104 130.664 24.1935C130.476 23.6765 130.393 23.1275 130.419 22.5781C130.393 22.0288 130.477 21.4799 130.665 20.963C130.852 20.4462 131.14 19.9715 131.512 19.5663C132.278 18.8336 133.297 18.4247 134.357 18.4247C135.417 18.4247 136.436 18.8336 137.202 19.5663C137.581 19.9675 137.876 20.4409 138.068 20.9583C138.261 21.4757 138.347 22.0266 138.323 22.5781C138.353 23.1296 138.272 23.6815 138.084 24.2009C137.896 24.7203 137.606 25.1964 137.229 25.6008L137.202 25.5899ZM161.252 15.7839C161.983 15.746 162.714 15.8568 163.401 16.1096C164.088 16.3623 164.716 16.7517 165.248 17.2542C166.227 18.2162 166.718 19.6647 166.718 21.627V29.2357H163.597V22.0151C163.684 21.0869 163.432 20.1586 162.887 19.4024C162.607 19.0969 162.263 18.8579 161.879 18.7028C161.495 18.5477 161.081 18.4804 160.668 18.5059C160.196 18.486 159.727 18.5696 159.291 18.7509C158.856 18.9322 158.466 19.2069 158.148 19.5554C157.459 20.3724 157.112 21.4241 157.18 22.4906V29.2357H154.059V22.0151C154.129 21.0794 153.855 20.1504 153.289 19.4024C153.009 19.0972 152.664 18.8584 152.28 18.7033C151.896 18.5482 151.483 18.4808 151.069 18.5059C150.596 18.4851 150.125 18.5655 149.685 18.7418C149.246 18.918 148.849 19.1861 148.522 19.5281C147.848 20.3624 147.512 21.4201 147.582 22.4906V29.2357H144.461V21.7965C144.461 18.0686 147.287 15.7839 150.976 15.7839C152.156 15.7682 153.33 15.9626 154.442 16.3578C155.209 16.7053 155.853 17.277 156.289 17.9976C156.85 17.2847 157.579 16.7214 158.41 16.3578C159.319 15.9612 160.305 15.769 161.296 15.7948L161.252 15.7839ZM183.346 23.5838C183.379 23.1866 183.395 22.8805 183.395 22.6656C183.423 21.415 183.123 20.179 182.526 19.0799C181.979 18.0575 181.145 17.2176 180.127 16.6639C179.069 16.0729 177.873 15.7731 176.661 15.7948C175.424 15.7752 174.202 16.0745 173.114 16.6639C172.081 17.2332 171.227 18.0793 170.649 19.1072C170.055 20.1705 169.754 21.3716 169.774 22.589C169.753 23.8266 170.062 25.0474 170.67 26.1255C171.295 27.1584 172.196 27.9954 173.272 28.5415C174.354 29.0534 175.526 29.3456 176.722 29.4009C177.917 29.4563 179.112 29.2738 180.236 28.864C181.117 28.516 181.897 27.9522 182.504 27.2242L180.832 25.3056C180.361 25.7828 179.796 26.1573 179.173 26.4056C178.551 26.654 177.883 26.7708 177.213 26.7487C176.183 26.7855 175.169 26.4883 174.322 25.9014C173.567 25.3395 173.054 24.5106 172.89 23.5838H183.346ZM174.114 19.1782C174.824 18.5771 175.731 18.2581 176.661 18.2818C177.591 18.2527 178.497 18.5724 179.203 19.1782C179.888 19.7787 180.324 20.6128 180.427 21.5177H172.868C172.978 20.6101 173.422 19.7761 174.114 19.1782V19.1782ZM194.103 15.7948V18.7574C193.865 18.7104 193.624 18.6848 193.382 18.6808C192.857 18.6533 192.332 18.7364 191.842 18.9248C191.351 19.1131 190.905 19.4024 190.534 19.774C189.804 20.6116 189.436 21.7047 189.512 22.8131V29.2357H186.391V22.5344C186.391 17.6751 189.512 15.1881 194.103 15.7948V15.7948ZM95.7152 29.4106C93.9332 29.4106 92.0365 28.9187 91.0089 27.9402C89.9813 26.9618 89.4839 25.4751 89.4839 23.5346V15.9314H92.605V23.1138C92.5317 24.0778 92.8157 25.0351 93.403 25.803C94.0443 26.3628 94.8667 26.6712 95.7179 26.6712C96.5691 26.6712 97.3915 26.3628 98.0327 25.803C98.6177 25.0339 98.9015 24.0775 98.8308 23.1138V15.9314H101.952V23.5346C101.952 25.4769 101.444 26.9454 100.427 27.9402C99.3883 28.9187 97.4807 29.4106 95.7042 29.4106H95.7152Z" fill="#2F326A"/>
</svg>
