<svg width="201" height="48" viewBox="0 0 201 48" fill="none" xmlns="http://www.w3.org/2000/svg">
<path d="M20.8102 28.3426C20.888 28.4721 20.9148 28.626 20.8854 28.7741C20.6108 30.0218 19.9427 31.1482 18.9796 31.9876C18.9268 32.0275 18.8823 32.0775 18.8488 32.1346C18.8368 32.1608 18.8306 32.1892 18.8306 32.218C18.8306 32.2468 18.8368 32.2752 18.8488 32.3013C18.8681 32.3237 18.8923 32.3413 18.9195 32.3526C18.9468 32.364 18.9763 32.3688 19.0057 32.3667C19.1452 32.3296 19.28 32.2769 19.4078 32.2098C19.9727 31.8889 20.4718 31.4641 20.8788 30.9578C21.124 30.6603 21.3659 30.3628 21.598 30.0555C22.0351 29.4486 22.3585 28.7675 22.5526 28.0452C22.729 27.46 22.8794 26.8683 23.0625 26.2832C23.1373 26.0686 23.228 25.8599 23.3339 25.6588C23.3764 25.5969 23.4258 25.5399 23.4809 25.4888H23.5267C23.5724 25.6425 23.6281 25.7896 23.6607 25.9465C23.7462 26.44 23.7583 26.9433 23.6967 27.4404C23.6289 28.0873 23.4963 28.7257 23.3012 29.3462C23.1644 29.7276 22.9799 30.09 22.752 30.4249C22.1791 31.3691 21.5026 32.2462 20.735 33.0401C20.1695 33.5862 19.5582 34.0827 18.9076 34.5242C18.8602 34.5485 18.8171 34.5806 18.7802 34.6191C18.7421 34.6648 18.7224 34.723 18.7246 34.7825C18.7383 34.8091 18.7582 34.8319 18.7827 34.849C18.8072 34.8661 18.8355 34.8769 18.8651 34.8806C19.0019 34.8797 19.138 34.8621 19.2705 34.8282C19.8745 34.6542 20.4394 34.3656 20.9344 33.9783C22.3189 32.9576 23.4434 31.6249 24.2164 30.0882C24.709 29.0857 25.0285 28.007 25.1611 26.8977C25.2407 26.1975 25.2484 25.491 25.1841 24.7893C25.128 24.4297 25.139 24.0628 25.2167 23.7073C25.2373 23.6258 25.2669 23.5468 25.305 23.4719C25.3933 23.3019 25.5208 23.2921 25.6057 23.4719C25.6951 23.642 25.7611 23.8235 25.8019 24.0113C25.9813 24.9104 26.0375 25.8298 25.9686 26.7441C25.8417 28.2295 25.4683 29.6834 24.8637 31.0461C24.2514 32.4491 23.332 33.6969 22.1733 34.6975C21.7974 35.0244 21.4378 35.3513 21.0488 35.6586C20.5816 35.9983 20.0811 36.2897 19.5549 36.5281C18.394 37.1049 17.1584 37.5175 15.8839 37.7539C15.1027 37.8895 14.3094 37.9422 13.5171 37.9108C13.1282 37.9108 12.7358 37.8848 12.3469 37.8651C11.4674 37.8164 10.5997 37.6402 9.77088 37.3421C8.5707 36.9244 7.41712 36.3832 6.32871 35.7272C5.05941 34.949 3.97685 33.901 3.15781 32.6576C2.75348 32.0729 2.40126 31.4538 2.10521 30.8074C2.09012 30.769 2.06583 30.735 2.03448 30.7081C2.00313 30.6814 1.96568 30.6627 1.92542 30.6538C1.71045 30.6003 1.51046 30.4987 1.34056 30.3565C1.17066 30.2144 1.03531 30.0354 0.944727 29.8333C0.70233 29.2413 0.514141 28.6286 0.38247 28.0027C0.1429 26.9921 0.0146448 25.9585 0 24.92C0.00981828 24.2626 0.0699257 23.6069 0.179794 22.9586C0.303878 22.0778 0.523089 21.2131 0.833585 20.3795C1.10819 19.6499 1.49415 18.9673 1.97772 18.356C2.25885 18.0029 2.49095 17.6074 2.76554 17.2478C4.50827 14.9445 7.00336 13.3251 9.81667 12.6712C10.3593 12.5405 10.902 12.4032 11.4512 12.3018C11.9415 12.2103 12.4319 12.1515 12.9352 12.1057C13.5171 12.0534 14.099 12.0076 14.6842 12.0011C17.0316 11.9684 19.3313 12.6664 21.2646 13.9984C21.4849 14.1317 21.6834 14.2982 21.853 14.492C21.9782 14.6446 22.0616 14.8271 22.0949 15.0216C22.1078 15.0674 22.134 15.1083 22.1701 15.1393C22.631 15.5839 23.1214 16.0056 23.5463 16.4828C24.2217 17.2207 24.7104 18.1096 24.9716 19.0751C25.0913 19.4651 25.133 19.8748 25.0943 20.2809C25.0555 20.687 24.9372 21.0815 24.746 21.4419C24.4263 21.9801 23.9767 22.4297 23.4384 22.7495C22.8396 23.1569 22.1212 23.3514 21.3986 23.3019C20.723 23.271 20.0818 22.9957 19.5942 22.5271C19.0818 21.9947 18.5359 21.4957 17.9597 21.0332C17.5805 20.7455 17.1882 20.4743 16.7927 20.216C16.3145 19.9287 15.7848 19.7376 15.2333 19.6537C14.6061 19.539 13.9673 19.5006 13.3308 19.5393C11.9394 19.5658 10.5931 20.0379 9.48975 20.8861C8.66293 21.5108 7.98239 22.3085 7.49573 23.2234C7.22012 23.7786 7.04629 24.3787 6.9825 24.9952C6.92927 25.3755 6.89872 25.7587 6.89097 26.1426C6.9218 27.2371 7.2072 28.3093 7.72456 29.2742C8.10681 30.0228 8.61552 30.6996 9.22825 31.2749C9.79817 31.787 10.4296 32.2263 11.1079 32.5824C11.88 33.001 12.7327 33.2495 13.6087 33.3115C14.759 33.4316 15.921 33.2572 16.9855 32.8048C17.4957 32.5649 17.9655 32.2474 18.3781 31.8633C19.0907 31.2504 19.6885 30.5153 20.1433 29.6927C20.3133 29.3952 20.431 29.0683 20.5748 28.7546C20.6173 28.6597 20.6663 28.5649 20.7154 28.4734C20.7453 28.429 20.7805 28.3885 20.82 28.3524" fill="black"/>
<path d="M192.009 23.3607C194.363 23.3607 195.931 25.1129 195.931 27.7019C195.931 30.2909 194.363 32.0169 192.009 32.0169C189.655 32.0169 188.06 30.2909 188.06 27.6757C188.06 25.0606 189.629 23.3607 192.009 23.3607ZM123.099 23.0992C124.93 23.0992 126.132 24.1191 126.421 25.7405H119.804C120.092 24.1061 121.295 23.0992 123.099 23.0992ZM63.7872 29.4802C63.7872 31.0754 62.8458 32.0169 61.172 32.0169C59.4983 32.0169 58.5046 31.0754 58.5046 29.4802V20.5364C58.5046 20.4496 58.4702 20.3665 58.4088 20.3051C58.3475 20.2438 58.2644 20.2094 58.1777 20.2094H54.778C54.6912 20.2094 54.6081 20.2438 54.5468 20.3051C54.4855 20.3665 54.451 20.4496 54.451 20.5364V29.6371C54.451 33.6122 56.7786 35.5997 59.7075 35.5997C61.7997 35.5997 63.2119 34.3183 63.8134 32.383V34.8675C63.8181 34.9527 63.854 35.0331 63.9143 35.0933C63.9746 35.1537 64.0551 35.1896 64.1403 35.1944H67.5661C67.6528 35.1944 67.736 35.1599 67.7973 35.0986C67.8586 35.0373 67.8931 34.9541 67.8931 34.8675V20.5364C67.8931 20.4496 67.8586 20.3665 67.7973 20.3051C67.736 20.2438 67.6528 20.2094 67.5661 20.2094H64.1272C64.0405 20.2094 63.9574 20.2438 63.8961 20.3051C63.8347 20.3665 63.8003 20.4496 63.8003 20.5364L63.7872 29.4802ZM98.9873 29.4802C98.9873 31.0754 98.0456 32.0169 96.3722 32.0169C94.6981 32.0169 93.7047 31.0754 93.7047 29.4802V20.5364C93.7047 20.4496 93.67 20.3665 93.6086 20.3051C93.548 20.2438 93.4649 20.2094 93.3776 20.2094H89.9784C89.8912 20.2094 89.808 20.2438 89.7467 20.3051C89.6853 20.3665 89.6514 20.4496 89.6514 20.5364V29.6371C89.6514 33.6122 91.9789 35.5997 94.9081 35.5997C96.9998 35.5997 98.4122 34.3183 99.0131 32.383V34.8675C99.018 34.9527 99.0543 35.0331 99.1149 35.0933C99.1746 35.1537 99.2554 35.1896 99.3402 35.1944H102.766C102.853 35.1944 102.936 35.1599 102.998 35.0986C103.058 35.0373 103.093 34.9541 103.093 34.8675V20.5364C103.093 20.4496 103.058 20.3665 102.998 20.3051C102.936 20.2438 102.853 20.2094 102.766 20.2094H99.3273C99.2408 20.2094 99.1577 20.2438 99.0963 20.3051C99.0349 20.3665 99.0002 20.4496 99.0002 20.5364L98.9873 29.4802ZM106.441 34.8675C106.441 34.9541 106.475 35.0373 106.536 35.0986C106.597 35.1599 106.681 35.1944 106.768 35.1944H110.141C110.228 35.1944 110.311 35.1599 110.372 35.0986C110.433 35.0373 110.468 34.9541 110.468 34.8675V26.6558C110.468 24.5898 111.776 24.1976 113.607 24.1976H114.966C115.053 24.1976 115.136 24.1632 115.198 24.1019C115.259 24.0406 115.293 23.9574 115.293 23.8706V20.5364C115.293 20.4496 115.259 20.3665 115.198 20.3051C115.136 20.2438 115.053 20.2094 114.966 20.2094H114.639C112.443 20.2094 111.083 21.2294 110.455 23.7138V20.5494C110.455 20.4627 110.421 20.3795 110.359 20.3182C110.298 20.2569 110.215 20.2225 110.128 20.2225H106.755C106.668 20.2225 106.584 20.2569 106.523 20.3182C106.462 20.3795 106.428 20.4627 106.428 20.5494L106.441 34.8675ZM158.979 34.8675C158.979 34.9541 159.014 35.0373 159.075 35.0986C159.136 35.1599 159.219 35.1944 159.306 35.1944H162.706C162.793 35.1944 162.876 35.1599 162.937 35.0986C162.998 35.0373 163.033 34.9541 163.033 34.8675V25.7405C163.033 24.2761 163.844 23.3607 165.386 23.3607C166.929 23.3607 167.793 24.2761 167.793 25.7405V34.8675C167.793 34.9541 167.827 35.0373 167.888 35.0986C167.949 35.1599 168.033 35.1944 168.119 35.1944H171.545C171.632 35.1944 171.715 35.1599 171.777 35.0986C171.838 35.0373 171.872 34.9541 171.872 34.8675V25.7405C171.872 24.2761 172.709 23.3607 174.226 23.3607C175.743 23.3607 176.632 24.2761 176.632 25.7405V34.8675C176.636 34.9527 176.672 35.0331 176.733 35.0933C176.793 35.1537 176.873 35.1896 176.958 35.1944H180.358C180.445 35.1944 180.528 35.1599 180.589 35.0986C180.651 35.0373 180.685 34.9541 180.685 34.8675V25.6097C180.685 21.7393 178.397 19.7779 175.481 19.7779C173.023 19.7779 171.768 21.3732 171.114 23.3738C170.929 22.3758 170.405 21.4724 169.631 20.8169C168.856 20.1615 167.878 19.7943 166.864 19.7779C164.72 19.7779 163.752 21.0855 163.02 23.0207V20.5364C163.02 20.4496 162.985 20.3665 162.924 20.3051C162.862 20.2438 162.78 20.2094 162.693 20.2094H159.293C159.206 20.2094 159.123 20.2438 159.062 20.3051C159 20.3665 158.966 20.4496 158.966 20.5364L158.979 34.8675ZM200.273 27.7019C200.273 23.3084 197.684 19.7779 193.525 19.7779C190.806 19.7779 188.714 21.2163 188.06 23.2561V20.5364C188.06 20.4496 188.026 20.3665 187.964 20.3051C187.903 20.2438 187.82 20.2094 187.733 20.2094H184.32C184.234 20.2094 184.151 20.2438 184.089 20.3051C184.028 20.3665 183.993 20.4496 183.993 20.5364V40.6732C183.993 40.7598 184.028 40.843 184.089 40.9043C184.151 40.9656 184.234 41 184.32 41H187.746C187.833 41 187.916 40.9656 187.977 40.9043C188.039 40.843 188.073 40.7598 188.073 40.6732V32.1739C188.727 34.2137 190.819 35.6259 193.538 35.6259C197.697 35.6259 200.286 32.1215 200.286 27.7019H200.273ZM143.628 26.8193L146.266 19.6995L148.911 26.8193H143.628ZM130.552 27.7085C130.552 23.2365 127.885 19.6014 123.073 19.6014C118.549 19.6014 115.594 23.2365 115.594 27.7085C115.594 32.3373 118.889 35.7893 123.91 35.7893C126.63 35.7893 128.957 34.5863 130.056 32.9911C130.084 32.9538 130.105 32.911 130.116 32.8654C130.128 32.8198 130.131 32.7723 130.123 32.7258C130.116 32.6793 130.099 32.6348 130.074 32.5949C130.049 32.5551 130.016 32.5208 129.977 32.4942L127.689 30.4544C127.657 30.4264 127.62 30.4055 127.58 30.3929C127.539 30.3803 127.496 30.3764 127.454 30.3813C127.413 30.3862 127.372 30.4 127.337 30.4216C127.3 30.4432 127.269 30.4722 127.245 30.5066C126.854 31.0705 126.329 31.5283 125.717 31.8387C125.105 32.1491 124.426 32.3025 123.74 32.285C121.805 32.285 120.026 31.3696 119.764 28.8591H130.225C130.27 28.8632 130.313 28.8574 130.355 28.8424C130.397 28.8274 130.435 28.8035 130.465 28.7723C130.497 28.7411 130.521 28.7034 130.536 28.6619C130.551 28.6204 130.557 28.5761 130.552 28.5322V27.7085ZM77.2684 23.3934C77.2684 23.4801 77.3029 23.5633 77.3642 23.6246C77.4254 23.6859 77.5086 23.7203 77.5953 23.7203H79.7921V30.7421C79.7921 33.5664 81.2305 35.214 84.238 35.214H87.0363C87.1228 35.214 87.2059 35.1795 87.2673 35.1182C87.3287 35.0569 87.3626 34.9737 87.3626 34.8871V31.945C87.3667 31.901 87.361 31.8568 87.3465 31.8153C87.3311 31.7739 87.3077 31.7361 87.2762 31.705C87.2447 31.6737 87.2076 31.6498 87.1656 31.6348C87.1244 31.6198 87.08 31.6141 87.0363 31.6181H85.1369C84.1952 31.6181 83.8818 31.2912 83.8818 30.4936V23.7268H86.9935C87.08 23.7268 87.1631 23.6924 87.2245 23.6311C87.2859 23.5698 87.3206 23.4866 87.3206 23.4V20.5494C87.3206 20.4627 87.2859 20.3795 87.2245 20.3182C87.1631 20.2569 87.08 20.2225 86.9935 20.2225H83.8818V15.9075C83.8818 15.8208 83.8471 15.7376 83.7857 15.6763C83.7244 15.615 83.6412 15.5806 83.5548 15.5806H80.0797C80.0358 15.5766 79.9914 15.5823 79.95 15.5973C79.9085 15.6123 79.8708 15.6362 79.8396 15.6674C79.8084 15.6986 79.7845 15.7363 79.7695 15.7778C79.7545 15.8193 79.7488 15.8636 79.7528 15.9075V20.1964H77.556C77.4694 20.1964 77.3862 20.2308 77.3249 20.2921C77.2636 20.3534 77.2292 20.4365 77.2292 20.5233L77.2684 23.3934ZM136.005 34.9002C135.991 34.9354 135.985 34.9735 135.989 35.0112C135.992 35.049 136.005 35.0854 136.026 35.1173C136.046 35.1493 136.074 35.176 136.106 35.195C136.139 35.2141 136.177 35.2251 136.215 35.227H140.215C140.316 35.23 140.413 35.1995 140.494 35.1402C140.575 35.081 140.633 34.9964 140.66 34.9002L142.255 30.559H150.31L151.944 34.9002C151.972 34.9964 152.03 35.081 152.111 35.1402C152.191 35.1995 152.289 35.23 152.389 35.227H156.468C156.506 35.2251 156.544 35.2141 156.577 35.195C156.609 35.176 156.637 35.1493 156.657 35.1173C156.678 35.0854 156.691 35.049 156.694 35.0112C156.698 34.9735 156.692 34.9354 156.678 34.9002L149.355 15.8879C149.326 15.8013 149.269 15.7265 149.194 15.6747C149.118 15.6228 149.029 15.5967 148.937 15.6002H143.733C143.637 15.5908 143.541 15.6141 143.46 15.6663C143.38 15.7186 143.319 15.7967 143.288 15.8879L136.005 34.9002ZM44.8665 31.5527C41.3883 31.5527 39.0608 28.9637 39.0608 25.3809C39.0608 21.7982 41.3883 19.2091 44.8665 19.2091C45.8225 19.219 46.7631 19.451 47.614 19.8866C48.465 20.3223 49.203 20.9499 49.7699 21.7197C49.794 21.7621 49.8279 21.7982 49.8688 21.8251C49.9097 21.8518 49.9563 21.8683 50.005 21.8735C50.0535 21.8786 50.1026 21.8721 50.1481 21.8545C50.1937 21.8368 50.2343 21.8085 50.2668 21.772L53.0389 19.3922C53.1032 19.3334 53.1439 19.2532 53.1535 19.1667C53.1631 19.0801 53.141 18.993 53.0912 18.9215C51.3913 16.4371 48.5146 15.1818 44.8796 15.1818C38.6685 15.1818 34.5758 19.8106 34.5758 25.3809C34.5758 31.0036 38.6816 35.6324 44.8796 35.6324C48.5146 35.6324 51.5744 34.0894 53.0912 31.8404C53.1417 31.7692 53.1642 31.6819 53.1545 31.595C53.1449 31.5083 53.1037 31.4281 53.0389 31.3696L50.2406 29.0814C50.2106 29.0454 50.172 29.0176 50.1285 29.0001C50.085 28.9827 50.0378 28.9762 49.9913 28.9814C49.9447 28.9866 49.9001 29.0032 49.8614 29.0298C49.8228 29.0563 49.7914 29.092 49.7699 29.1337C49.193 29.8852 48.4504 30.4933 47.5998 30.9107C46.7493 31.328 45.8139 31.5433 44.8665 31.5396V31.5527ZM75.0194 14.5411H71.5543C71.5103 14.537 71.4661 14.5427 71.4246 14.5577C71.383 14.5727 71.3454 14.5967 71.3142 14.6279C71.283 14.6591 71.2591 14.6968 71.244 14.7383C71.229 14.7797 71.2234 14.824 71.2273 14.868V34.874C71.2273 34.9607 71.2618 35.0438 71.3231 35.1051C71.3844 35.1664 71.4676 35.2009 71.5543 35.2009H75.003C75.0897 35.2009 75.1729 35.1664 75.2342 35.1051C75.2955 35.0438 75.3299 34.9607 75.3299 34.874V14.8614C75.3339 14.8175 75.3283 14.7732 75.3132 14.7317C75.2982 14.6902 75.2742 14.6526 75.2431 14.6214C75.2119 14.5902 75.1742 14.5662 75.1327 14.5512C75.0912 14.5362 75.047 14.5305 75.003 14.5345" fill="black"/>
</svg>
