<svg width="145" height="48" viewBox="0 0 145 48" fill="none" xmlns="http://www.w3.org/2000/svg">
<path fill-rule="evenodd" clip-rule="evenodd" d="M0 38.9361C0 40.7945 1.20602 41.9998 3.06513 41.9998L12.0207 42C17.3632 42 21.7335 40.1931 24.7047 37.0299H0V38.9361ZM12.0207 8.00017L3.06513 8C1.20602 8 0 9.20546 0 11.0639V12.9701H24.7047C21.7335 9.80692 17.3632 8.00017 12.0207 8.00017ZM19.8363 29.8446C19.8363 31.348 20.8161 32.3235 22.3267 32.3235H27.693C28.3013 30.8146 28.71 29.1557 28.9 27.3656H22.3267C20.8161 27.3656 19.8363 28.3409 19.8363 29.8446ZM12.3981 20.1677C12.3981 21.6713 13.3779 22.6466 14.8885 22.6466H28.9C28.71 20.8565 28.3013 19.1977 27.693 17.6888H14.8885C13.3779 17.6888 12.3981 18.664 12.3981 20.1677ZM14.8868 29.8446C14.8868 28.3409 13.907 27.3656 12.3964 27.3656H0V32.3235H12.3964C13.907 32.3235 14.8868 31.3482 14.8868 29.8446ZM7.4487 20.1677C7.4487 18.664 6.46888 17.6888 4.95826 17.6888H0V22.6466H4.95826C6.46888 22.6466 7.4487 21.6713 7.4487 20.1677Z" fill="#0062FF"/>
<path fill-rule="evenodd" clip-rule="evenodd" d="M63.0228 24.4873C63.4219 22.5471 64.7109 21.5605 66.4052 21.5605C68.0849 21.5605 69.3132 22.5913 69.705 24.4873H63.0228ZM66.4973 18.1992C62.1833 18.1992 59.5 21.6533 59.5 25.8782C59.5 30.2538 62.3673 33.4992 66.6289 33.4992C69.568 33.4992 71.3508 32.1372 72.4542 30.4221L69.7106 28.6656C69.0208 29.6099 67.9171 30.1089 66.7341 30.1089C64.7989 30.1089 63.503 29.2008 63.0613 27.385H70.3028C70.3022 27.3873 70.3017 27.3897 70.301 27.3922L72.9409 27.4077C73.041 26.9299 73.1 26.4362 73.1 25.8782C73.1 22.1981 70.8377 18.1992 66.4973 18.1992Z" fill="#0062FF"/>
<path fill-rule="evenodd" clip-rule="evenodd" d="M48.4498 30.0996C45.7955 30.0996 44.1998 28.1967 44.1998 25.8495C44.1998 23.5023 45.8261 21.5996 48.4498 21.5996C51.0736 21.5996 52.6998 23.5023 52.6998 25.8495C52.6998 28.1967 51.1041 30.0996 48.4498 30.0996ZM52.4106 20.446C51.3507 19.173 49.8458 18.3926 47.9779 18.3926C43.8026 18.3926 40.7998 21.7746 40.7998 25.9461C40.7998 30.1178 43.7741 33.4996 47.9779 33.4996C49.8458 33.4996 51.3507 32.7193 52.4106 31.4463V33.1276H56.0998V13.0996H52.4106V20.446Z" fill="#0062FF"/>
<path fill-rule="evenodd" clip-rule="evenodd" d="M84.3817 25.5988C85.3833 26.2984 86.0181 27.3476 86.0181 28.732C86.0181 31.5301 84.1321 33.4713 80.606 33.4713C77.2877 33.4713 75.5083 31.7711 74.7998 30.0539L77.8455 28.2753C77.8455 28.2753 78.2555 30.131 80.5514 30.131C81.9727 30.131 82.4101 29.5029 82.4101 28.9481C82.4101 28.6911 82.328 28.2182 81.3168 27.8184C79.2855 27.0157 75.3581 26.6556 75.3581 22.9935C75.3581 19.996 77.7078 18.3972 80.606 18.3972C83.3161 18.3972 85.057 20.0835 85.7179 21.3955L82.7381 23.1364C82.7381 23.1364 82.1641 21.6803 80.6334 21.6803C79.1028 21.6803 78.9661 22.5654 78.9661 22.8223C78.9661 23.5717 79.7301 23.8794 81.3714 24.3641C82.3432 24.651 83.3413 24.9115 84.3848 25.5961C84.3838 25.597 84.3827 25.5979 84.3817 25.5988ZM144.5 22.337H141.411V28.2752C141.411 30.1311 143.215 29.7313 144.5 29.7313V33.0716C144.5 33.0716 143.823 33.1858 142.641 33.1858C140.017 33.1858 137.885 32.3865 137.885 28.2752V22.337H135.507V18.7967H137.885V14.7998H141.411V18.7967H144.5V22.337ZM94.7837 29.874C96.2469 29.874 97.3719 29.145 97.9405 27.9491L100.997 29.7796C99.7994 31.9735 97.5679 33.4998 94.7837 33.4998C90.5609 33.4998 87.6088 30.1254 87.6088 25.9628C87.6088 21.8001 90.5882 18.4257 94.7837 18.4257C97.5271 18.4257 99.7502 19.9271 100.961 22.0918L97.911 23.9641C97.3314 22.7838 96.2153 22.0514 94.7837 22.0514C92.65 22.0514 91.1349 23.8026 91.1349 25.9628C91.1349 28.1229 92.6361 29.874 94.7837 29.874Z" fill="#0062FF"/>
<path fill-rule="evenodd" clip-rule="evenodd" d="M127.197 29.8349C124.9 29.8349 123.52 28.0442 123.52 25.8354C123.52 23.6266 124.927 21.8361 127.197 21.8361C129.468 21.8361 130.875 23.6266 130.875 25.8354C130.875 28.0442 129.494 29.8349 127.197 29.8349ZM127.635 18.347C131.512 18.347 134.3 21.6998 134.3 25.8354C134.3 29.9712 131.539 33.3238 127.635 33.3238C125.901 33.3238 124.504 32.5502 123.52 31.2881V38.5996H120.094V18.7443H123.52V20.3827C124.504 19.1207 125.901 18.347 127.635 18.347ZM113.509 32.9549V18.7725H116.934V32.9549H113.509ZM107.126 21.1951C107.787 19.4765 109.133 18.4935 111.162 18.4891V22.5736C108.784 22.3333 107.066 23.5964 107.128 26.58C107.127 26.5779 107.127 26.5756 107.126 26.5733V32.9549H103.7V18.7727H107.126V21.1951ZM113.509 16.8798V13.0996H117.047V16.8798H113.509Z" fill="#0062FF"/>
</svg>
