<svg width="77" height="48" viewBox="0 0 77 48" fill="none" xmlns="http://www.w3.org/2000/svg">
<path d="M0 25.6437C0.0461594 25.3806 0.0963327 25.1182 0.139147 24.853C0.476312 22.7434 1.49985 21.0261 3.0987 19.6315C4.41458 18.4853 5.88098 17.5553 7.35607 16.6374C9.36166 15.3881 11.3084 14.0524 13.1661 12.5909C13.2491 12.5259 13.3126 12.3833 13.3133 12.2769C13.3233 10.9914 13.32 9.70526 13.32 8.41979V8.12252H18.0998V8.39501C18.0998 13.7257 18.1072 19.057 18.0958 24.3877C18.0918 26.4304 17.7607 28.4162 16.792 30.2433C15.4902 32.6991 13.4919 34.2155 10.7157 34.6353C8.73416 34.9353 6.76871 34.8476 4.921 34.0415C2.06513 32.7962 0.428814 30.5868 0.0568631 27.4695C0.0495043 27.4086 0.0194003 27.349 0 27.2894V25.6437ZM13.32 18.3192C12.2309 19.2559 11.0569 19.9535 9.86139 20.6251C8.51742 21.3796 7.2303 22.2178 6.05759 23.2295C4.6815 24.4165 4.12023 27.3383 5.92379 28.9277C7.53335 30.3457 10.9378 30.7086 12.5246 27.8672C13.0758 26.8817 13.2906 25.7971 13.3046 24.6823C13.3314 22.6256 13.3167 20.5688 13.3193 18.5127L13.32 18.3192Z" fill="#1562E7"/>
<path d="M39.9347 42.0007C39.9267 41.9077 39.9126 41.8146 39.9126 41.7222C39.9113 36.3052 39.9039 30.8888 39.916 25.4724C39.92 23.4143 40.2485 21.4138 41.1803 19.5519C42.347 17.2233 44.2202 15.7999 46.7696 15.3092C48.6435 14.949 50.5159 15.0025 52.3489 15.579C55.3841 16.533 57.5863 19.27 57.882 22.4187C58.2065 25.8795 56.9421 28.6385 54.2308 30.7709C52.9624 31.7678 51.5876 32.6001 50.2075 33.4276C48.311 34.5651 46.5315 35.8686 44.8316 37.2847C44.6731 37.4159 44.6055 37.5484 44.6075 37.7587C44.6169 39.1734 44.6122 40.5867 44.6122 42.0007H39.9347ZM44.6115 31.6279C44.7038 31.5489 44.7534 31.5027 44.8062 31.4612C45.3481 31.0294 45.8592 30.55 46.4392 30.1791C47.4172 29.5544 48.4541 29.0208 49.4395 28.4069C50.3607 27.8331 51.2745 27.2372 52.0419 26.4559C53.6079 24.8625 53.5544 22.3953 51.9683 20.8849C50.3694 19.3617 46.6566 19.1167 45.231 22.3096C44.8196 23.2309 44.6483 24.2083 44.6269 25.2059C44.5975 26.6019 44.6142 27.9991 44.6122 29.3958C44.6109 30.1228 44.6115 30.8493 44.6115 31.6279Z" fill="#1562E7"/>
<path d="M76.3229 30.0672C76.254 30.3632 76.1985 30.6631 76.1129 30.955C75.6613 32.4889 74.7836 33.6846 73.3206 34.3936C72.6275 34.7297 71.893 34.9051 71.1169 34.9045C67.3834 34.9011 63.6485 34.9025 59.9149 34.9025H59.5885V30.1703H59.8755C63.5582 30.1703 67.2416 30.171 70.9236 30.1703C71.3645 30.1703 71.5237 30.0063 71.6 29.5751C71.7538 28.7081 71.1972 28.0741 70.4312 27.7012C69.8352 27.4113 69.191 27.3195 68.536 27.3155C67.067 27.3075 65.6133 27.187 64.2098 26.7183C62.5835 26.176 61.2 25.2842 60.2621 23.8099C59.634 22.8224 59.448 21.7077 59.5028 20.5608C59.6179 18.1345 60.9418 16.5497 63.0906 15.595C63.7689 15.293 64.5141 15.2448 65.2554 15.2448C68.5186 15.2468 71.7812 15.2455 75.0445 15.2462C75.086 15.2462 75.1281 15.2509 75.185 15.2542V19.9348H74.888C71.7103 19.9348 68.5327 19.9348 65.3557 19.9341C65.0079 19.9341 64.668 19.9421 64.4466 20.2823C64.1228 20.779 64.28 21.4345 64.8179 21.7753C65.4012 22.1435 66.0535 22.3337 66.7291 22.3959C67.6389 22.481 68.5568 22.4789 69.4673 22.5633C71.4782 22.7514 73.2824 23.423 74.6752 24.9568C75.5429 25.9102 76.0761 27.0363 76.2694 28.3164C76.2774 28.3707 76.3055 28.4216 76.3236 28.4731L76.3229 30.0672Z" fill="#1562E7"/>
<path d="M35.4631 8.00067C35.6036 8.04954 35.7475 8.09105 35.8833 8.1493C37.6841 8.92192 37.9731 10.6707 36.9195 11.9006C36.2131 12.7254 35.0062 12.9517 34.0683 12.4543C33.1023 11.9434 32.5518 10.8019 32.8501 9.78828C33.101 8.93799 33.7077 8.39033 34.5433 8.10043C34.6436 8.06561 34.7447 8.03348 34.8457 8L35.4631 8.00067Z" fill="#1562E7"/>
<path d="M25.1239 34.8925H20.4116V34.6093C20.4116 31.3521 20.3868 28.0955 20.4183 24.8384C20.4524 21.3642 21.9034 18.6286 24.8416 16.7399C26.0698 15.9505 27.4606 15.5796 28.8909 15.36C29.3531 15.2897 29.8234 15.267 30.3125 15.2201V19.813C29.5411 19.8438 28.8059 20.0172 28.1028 20.3238C26.1153 21.1895 25.1319 22.7167 25.1259 24.8738C25.1185 28.1143 25.1239 31.3534 25.1239 34.5939V34.8925Z" fill="#1562E7"/>
<path d="M37.5069 15.2656H32.7993V34.8951H37.5069V15.2656Z" fill="#1562E7"/>
</svg>
