<svg width="128" height="48" viewBox="0 0 128 48" fill="none" xmlns="http://www.w3.org/2000/svg">
<g clip-path="url(#clip0_72_16730)">
<path d="M44.172 24.0526C44.1762 22.2602 43.6261 20.5103 42.597 19.0428C41.5679 17.5752 40.1102 16.4617 38.4236 15.8549C38.5771 15.0726 38.6545 14.2773 38.6547 13.4801C38.6562 10.8413 37.8209 8.26997 36.2689 6.13585C34.7169 4.00172 32.5281 2.4147 30.0173 1.60296C27.5064 0.79122 24.8029 0.796569 22.2953 1.61824C19.7877 2.43991 17.6052 4.03558 16.0616 6.17583C14.9229 5.29337 13.5275 4.80608 12.087 4.78776C10.6464 4.76944 9.23914 5.2211 8.0783 6.07432C6.91746 6.92754 6.06631 8.13583 5.65377 9.51617C5.24123 10.8965 5.28978 12.3737 5.79207 13.724C4.10152 14.3402 2.64022 15.4593 1.60473 16.9308C0.56924 18.4024 0.00923079 20.1557 2.95997e-05 21.955C-0.00466136 23.7536 0.548321 25.5095 1.58284 26.9808C2.61736 28.4521 4.08255 29.5666 5.77666 30.1707C5.6267 30.9526 5.5502 31.7468 5.54817 32.543C5.54565 35.1787 6.38025 37.7471 7.93163 39.8779C9.48302 42.0087 11.671 43.5918 14.1802 44.3988C16.6893 45.2059 19.3899 45.1953 21.8926 44.3684C24.3953 43.5416 26.5707 41.9414 28.1053 39.7984C29.2407 40.6831 30.6337 41.1733 32.0729 41.1948C33.5121 41.2163 34.9191 40.7678 36.0805 39.9174C37.2418 39.0671 38.0941 37.8611 38.5082 36.4826C38.9222 35.104 38.8754 33.6281 38.3749 32.2785C40.0663 31.6634 41.5286 30.5446 42.5646 29.0729C43.6007 27.6012 44.1608 25.8473 44.1695 24.0475" fill="white"/>
<path d="M17.3655 19.9502L27.0318 24.3635L36.7879 15.8192C36.9284 15.1142 36.9981 14.3969 36.9958 13.678C36.9953 11.3507 36.25 9.0846 34.8688 7.21135C33.4877 5.33811 31.5433 3.95605 29.3202 3.26742C27.0971 2.57879 24.7119 2.61973 22.5137 3.38425C20.3155 4.14878 18.4197 5.59675 17.1037 7.51629L15.4785 15.9219L17.3655 19.9502Z" fill="#FEC514"/>
<path d="M7.36056 30.1865C7.21803 30.9025 7.14665 31.6309 7.14747 32.361C7.14752 34.6981 7.89669 36.9736 9.28502 38.8535C10.6734 40.7335 12.6278 42.1189 14.8614 42.8065C17.095 43.4941 19.4902 43.4476 21.6954 42.6738C23.9006 41.9001 25.7998 40.4398 27.1141 38.5074L28.7238 30.1197L26.5749 26.0119L16.8728 21.5908L7.36056 30.1865Z" fill="#00BFB3"/>
<path d="M7.30175 13.46L13.9256 15.0235L15.3762 7.49081C14.4753 6.80766 13.3773 6.43471 12.2466 6.42783C11.116 6.42095 10.0135 6.78049 9.10434 7.45263C8.19514 8.12477 7.52813 9.07333 7.20317 10.1563C6.87822 11.2393 6.9128 12.3983 7.30175 13.46" fill="#F04E98"/>
<path d="M6.72629 15.0361C5.27294 15.5266 4.00856 16.4577 3.10899 17.7001C2.20942 18.9425 1.71938 20.4343 1.70703 21.9681C1.70599 23.4505 2.15616 24.898 2.99769 26.1184C3.83923 27.3387 5.03226 28.274 6.4182 28.7999L15.7122 20.3994L14.0048 16.7537L6.72629 15.0361Z" fill="#1BA9F5"/>
<path d="M28.8135 38.5075C29.713 39.1872 30.8082 39.5578 31.9356 39.5637C33.063 39.5697 34.1621 39.2109 35.0687 38.5408C35.9754 37.8707 36.641 36.9253 36.9661 35.8458C37.2912 34.7662 37.2583 33.6105 36.8725 32.5512L30.2538 31.0107L28.8135 38.5075Z" fill="#93C90E"/>
<path d="M30.1598 29.2673L37.4461 30.9695C38.9002 30.4804 40.1655 29.5495 41.0653 28.3069C41.9651 27.0642 42.4545 25.5717 42.4653 24.0375C42.464 22.5582 42.0129 21.1144 41.172 19.8974C40.331 18.6805 39.1399 17.748 37.7567 17.2236L28.2266 25.5677L30.1598 29.2673Z" fill="#0077CC"/>
<path d="M61.7608 31.911L62.644 31.8211L62.7056 33.6183C60.7403 33.9151 58.7572 34.0781 56.7698 34.1061C54.579 34.1061 53.0266 33.472 52.1126 32.2037C51.1986 30.9354 50.7424 28.9619 50.7441 26.2833C50.7441 20.9482 52.8648 18.2798 57.1061 18.2781C59.1601 18.2781 60.6919 18.8515 61.7018 19.9983C62.7116 21.1451 63.2182 22.9422 63.2217 25.3898L63.101 27.1254H53.0574C53.0574 28.8096 53.362 30.0573 53.9714 30.8686C54.5807 31.6799 55.6402 32.0856 57.1498 32.0856C58.6628 32.0907 60.1999 32.0325 61.7608 31.911ZM60.9393 25.3077C60.9393 23.4403 60.6406 22.1215 60.0432 21.3513C59.4459 20.5811 58.472 20.1951 57.1216 20.1934C55.7711 20.1934 54.7561 20.5991 54.0766 21.4103C53.3971 22.2216 53.0471 23.5207 53.0266 25.3077H60.9393Z" fill="#1C1E23"/>
<path d="M66.4052 33.9854V13.9598H68.6877V33.9854H66.4052Z" fill="#1C1E23"/>
<path d="M83.0626 23.1767V30.8532C83.0626 31.6234 84.9573 31.5824 84.9573 31.5824L84.8418 33.6003C83.2372 33.6003 81.9098 33.7338 81.114 32.9611C79.3904 33.7265 77.5235 34.116 75.6377 34.1035C74.2393 34.1035 73.1739 33.7073 72.4413 32.9148C71.7087 32.1224 71.3433 30.9833 71.345 29.4976C71.345 28.0154 71.7207 26.9242 72.4721 26.2242C73.2235 25.5242 74.4002 25.0963 76.0023 24.9405L80.7802 24.4861V23.1767C80.7802 22.1497 80.5577 21.4086 80.1127 20.9533C79.8688 20.7245 79.5811 20.5473 79.267 20.4326C78.9528 20.3179 78.6187 20.2679 78.2847 20.2858H72.2873V18.2755H78.1332C79.8585 18.2755 81.1114 18.6718 81.8919 19.4643C82.6724 20.2567 83.0626 21.4942 83.0626 23.1767ZM73.6839 29.3847C73.6839 31.252 74.4541 32.1857 75.9946 32.1857C77.3843 32.1841 78.7636 31.9471 80.0742 31.4848L80.7725 31.2409V26.2191L76.277 26.6453C75.363 26.7274 74.7032 26.991 74.2975 27.436C73.8919 27.881 73.6873 28.5306 73.6839 29.3847Z" fill="#1C1E23"/>
<path d="M91.9738 20.3166C89.7607 20.3166 88.6542 21.0868 88.6542 22.6273C88.6542 23.3393 88.9109 23.8417 89.4244 24.1343C89.9379 24.427 91.094 24.7317 92.8929 25.0483C94.7004 25.365 95.9789 25.8066 96.7286 26.3731C97.4783 26.9396 97.854 28.0043 97.8557 29.5669C97.8557 31.1313 97.3533 32.2781 96.3486 33.0073C95.3439 33.7364 93.878 34.1018 91.9507 34.1035C90.6927 34.1035 86.4924 33.6363 86.4924 33.6363L86.6156 31.6594C89.029 31.8904 90.7723 32.0625 91.9507 32.0625C93.1291 32.0625 94.0252 31.875 94.6439 31.5002C95.2626 31.1254 95.5707 30.4963 95.5707 29.6132C95.5707 28.73 95.314 28.1318 94.78 27.816C94.246 27.5002 93.0958 27.2024 91.3114 26.9174C89.5271 26.6324 88.2562 26.2165 87.5065 25.6696C86.7569 25.1228 86.3795 24.1061 86.3795 22.6247C86.3795 21.1433 86.8929 20.0573 87.9481 19.3385C89.0033 18.6196 90.2973 18.273 91.8583 18.273C93.0958 18.273 97.391 18.5888 97.391 18.5888V20.5785C95.124 20.4784 93.2703 20.3166 91.9738 20.3166Z" fill="#1C1E23"/>
<path d="M108.857 20.558H104.018V27.834C104.018 29.5781 104.144 30.724 104.398 31.2717C104.654 31.8211 105.255 32.0933 106.208 32.0933L108.916 31.911L109.07 33.798C108.045 33.9876 107.006 34.1 105.964 34.1343C104.382 34.1343 103.287 33.7484 102.677 32.9765C102.068 32.2045 101.764 30.7334 101.766 28.5631V20.558H99.6145V18.5811H101.776V13.9238H104.028V18.5811H108.857V20.558Z" fill="#1C1E23"/>
<path d="M112.03 16.6376V13.988H114.313V16.6376H112.03ZM112.03 33.9854V18.5811H114.313V33.9854H112.03Z" fill="#1C1E23"/>
<path d="M124.2 18.2756C125.34 18.3242 126.475 18.4468 127.599 18.6427L128.328 18.7326L128.238 20.5888C127.046 20.4377 125.846 20.3468 124.644 20.3166C122.919 20.3166 121.747 20.7274 121.129 21.549C120.511 22.3706 120.202 23.8922 120.2 26.1138C120.2 28.3389 120.489 29.8862 121.068 30.7557C121.646 31.6251 122.853 32.0616 124.688 32.065L128.282 31.7929L128.374 33.6799C126.975 33.9169 125.562 34.0593 124.143 34.1061C121.771 34.1061 120.133 33.4968 119.229 32.2781C118.326 31.0595 117.874 29.0056 117.874 26.1164C117.874 23.2255 118.361 21.1964 119.335 20.0291C120.309 18.8618 121.93 18.2773 124.2 18.2756Z" fill="#1C1E23"/>
</g>
<defs>
<clipPath id="clip0_72_16730">
<rect width="128" height="48" fill="white"/>
</clipPath>
</defs>
</svg>
