<svg width="140" height="48" viewBox="0 0 140 48" fill="none" xmlns="http://www.w3.org/2000/svg">
<path d="M65.7353 13.6122C64.9897 13.5889 64.3839 14.1715 64.3606 14.8938C64.3606 14.9171 64.3606 14.9637 64.3606 14.987V21.6045C61.1683 19.0414 56.4848 19.554 53.9217 22.7462C52.8732 24.0744 52.2907 25.7055 52.2907 27.4064C52.2208 31.5074 55.4829 34.886 59.5839 34.9559C63.6848 35.0258 67.0635 31.7637 67.1334 27.6627C67.1334 27.5695 67.1334 27.4996 67.1334 27.4064V14.987C67.1334 14.6142 66.9936 14.2647 66.7373 14.0084C66.4576 13.7521 66.1081 13.6122 65.7353 13.6122ZM63.9877 29.2006C63.5217 30.319 62.6363 31.2045 61.5178 31.6938C60.3528 32.1831 59.0479 32.1831 57.8829 31.6938C56.7644 31.2278 55.9023 30.319 55.4363 29.2239C54.947 28.0822 54.947 26.7773 55.4363 25.6122C55.9023 24.4938 56.7877 23.6084 57.8829 23.1423C59.0479 22.653 60.3528 22.653 61.5178 23.1423C62.6363 23.6317 63.5217 24.5171 63.9877 25.6355C64.4771 26.754 64.4771 28.0588 63.9877 29.2006Z" fill="#0091E2"/>
<path d="M81.2304 22.1637C78.3411 19.2744 73.6343 19.2744 70.745 22.1637C69.3469 23.5618 68.578 25.4491 68.578 27.4064C68.5081 31.5074 71.7702 34.886 75.8712 34.9559C79.9722 35.0258 83.3508 31.7637 83.4207 27.6627C83.4207 27.5695 83.4207 27.4996 83.4207 27.4064C83.4207 26.4278 83.2343 25.4724 82.8615 24.5637C82.4887 23.655 81.9295 22.8394 81.2304 22.1637ZM80.2751 29.1773C80.0421 29.7365 79.6926 30.2258 79.2731 30.6452C78.8537 31.0647 78.3411 31.4142 77.8052 31.6472C76.6401 32.1365 75.3353 32.1365 74.1702 31.6472C73.0518 31.1812 72.1664 30.2724 71.7003 29.1773C71.211 28.0355 71.211 26.7307 71.7003 25.5656C72.1664 24.4472 73.0518 23.5851 74.1702 23.0957C75.3353 22.6064 76.6401 22.6064 77.8052 23.0957C78.3644 23.3287 78.8537 23.6783 79.2731 24.0977C79.6926 24.5171 80.0421 25.0297 80.2751 25.5656C80.7644 26.754 80.7644 28.0588 80.2751 29.1773Z" fill="#0091E2"/>
<path d="M111.918 21.3482C111.918 21.1618 111.871 20.9754 111.801 20.8123C111.731 20.6492 111.615 20.5094 111.498 20.3696C111.382 20.2531 111.219 20.1366 111.056 20.0667C110.892 19.9968 110.706 19.9502 110.52 19.9502C110.263 19.9502 110.007 20.0201 109.774 20.1599L101.852 25.3094V15.0104C101.852 14.6375 101.712 14.288 101.456 14.0317C101.199 13.7754 100.85 13.6123 100.477 13.6123C99.708 13.6123 99.1022 14.2181 99.0789 14.9871C99.0789 14.9871 99.0789 14.9871 99.0789 15.0104V33.4181C99.0789 33.791 99.2187 34.1405 99.475 34.3968C99.7313 34.6764 100.081 34.8162 100.454 34.8162C100.826 34.8162 101.176 34.6764 101.432 34.3968C101.689 34.1405 101.852 33.791 101.828 33.4181V28.6414L103.436 27.5929L109.564 34.4667C109.821 34.6997 110.147 34.8395 110.496 34.8162C110.683 34.8162 110.869 34.7929 111.032 34.6997C111.195 34.6298 111.335 34.5366 111.475 34.3968C111.591 34.257 111.708 34.1172 111.778 33.9541C111.848 33.7909 111.894 33.6045 111.894 33.4181C111.894 33.0686 111.755 32.7191 111.522 32.4628L105.836 26.055L111.382 22.4434C111.755 22.2104 111.941 21.791 111.918 21.3482Z" fill="#0091E2"/>
<path d="M88.9197 24.0976C89.3391 23.6782 89.8517 23.3287 90.4109 23.0957C90.9935 22.8627 91.5993 22.7229 92.2284 22.7229C92.7876 22.7229 93.3236 22.8161 93.8362 23.0025C94.3488 23.2122 94.8381 23.4918 95.2576 23.8646C95.5139 24.0743 95.8401 24.1675 96.1663 24.1675C96.5391 24.1908 96.9119 24.051 97.1682 23.7714C97.4245 23.5151 97.5643 23.1423 97.5643 22.7695C97.5643 22.3734 97.4012 21.9773 97.075 21.7209C95.7469 20.5326 94.0226 19.8802 92.2284 19.9268C88.1275 19.9268 84.7954 23.2588 84.7954 27.3598C84.7954 31.4608 88.1042 34.7695 92.1818 34.7928C93.976 34.7928 95.7003 34.1637 97.0517 32.9986C97.3313 32.7423 97.4944 32.3695 97.4944 31.9734C97.5177 31.2277 96.9352 30.6219 96.2129 30.5986C96.1896 30.5986 96.143 30.5986 96.1197 30.5986C95.7935 30.5986 95.4906 30.6918 95.2343 30.8782C94.8148 31.251 94.3488 31.5307 93.8362 31.7404C93.3236 31.9268 92.7643 32.02 92.2284 32.02C91.5993 32.02 90.9935 31.9035 90.4109 31.6472C89.8517 31.4141 89.3624 31.0646 88.9197 30.6452C87.1022 28.8277 87.1022 25.8918 88.8964 24.0743C88.9197 24.1209 88.9197 24.1209 88.9197 24.0976Z" fill="#0091E2"/>
<path d="M139.436 20.9054C139.157 20.6491 138.854 20.4627 138.504 20.3462C138.108 20.2064 137.689 20.1132 137.269 20.0666C136.85 20.02 136.431 19.9967 136.011 19.9967C135.172 19.9967 134.31 20.1365 133.518 20.4394C132.726 20.719 132.003 21.1385 131.351 21.6511V21.3715C131.328 20.6025 130.675 20.02 129.906 20.0433C129.184 20.0666 128.601 20.6491 128.578 21.3715V33.4647C128.601 34.2336 129.254 34.8161 130.023 34.7928C130.745 34.7695 131.328 34.187 131.351 33.4647V27.4297C131.351 26.8006 131.467 26.1948 131.724 25.6122C131.957 25.053 132.283 24.5637 132.726 24.1443C133.145 23.7249 133.658 23.3753 134.194 23.1423C134.776 22.9093 135.382 22.7695 136.011 22.7695C136.64 22.7695 137.246 22.886 137.829 23.0957C138.015 23.1889 138.201 23.2355 138.411 23.2355C138.598 23.2355 138.784 23.2122 138.947 23.119C139.11 23.0491 139.25 22.9559 139.39 22.8161C139.506 22.6996 139.623 22.5365 139.693 22.3734C139.763 22.2103 139.809 22.0239 139.809 21.8375C139.832 21.488 139.693 21.1618 139.436 20.9054Z" fill="#0091E2"/>
<path d="M126.574 24.5637C125.386 21.8142 122.683 20.02 119.7 19.9967C115.599 19.9967 112.291 23.3054 112.267 27.4064C112.267 31.5074 115.599 34.8394 119.7 34.8394C121.471 34.8394 123.195 34.2103 124.547 33.0452C124.57 33.0219 124.594 32.9986 124.594 32.9986C124.71 32.9054 124.827 32.7889 124.896 32.6491C125.339 31.9967 125.176 31.1346 124.547 30.6918C124.011 30.3423 123.312 30.4122 122.846 30.855C122.799 30.9016 122.66 31.0181 122.66 31.0414L122.636 31.0647C122.24 31.3909 121.797 31.6705 121.308 31.8336C120.795 32.02 120.26 32.1132 119.7 32.0899C119.188 32.0899 118.698 32.02 118.209 31.8569C117.743 31.6938 117.3 31.4841 116.904 31.1812C116.508 30.9016 116.159 30.552 115.879 30.1559C115.576 29.7598 115.366 29.2938 115.227 28.8278H125.712C126.085 28.8278 126.434 28.688 126.691 28.4317C126.97 28.1753 127.11 27.8258 127.087 27.453C127.11 26.4511 126.924 25.4724 126.574 24.5637ZM115.227 26.055C115.366 25.5656 115.576 25.1229 115.879 24.7268C116.159 24.3307 116.508 23.9812 116.904 23.7016C117.3 23.4219 117.743 23.1889 118.209 23.0258C118.675 22.8627 119.188 22.7928 119.677 22.7928C120.166 22.7928 120.679 22.8627 121.145 23.0258C122.077 23.3287 122.893 23.9346 123.475 24.7268C123.778 25.1229 123.988 25.5889 124.151 26.055H115.227Z" fill="#0091E2"/>
<path d="M134.706 32.8123C134.17 32.8123 133.751 33.255 133.751 33.7909C133.751 34.3268 134.193 34.7462 134.729 34.7462C135.265 34.7462 135.685 34.3035 135.685 33.7909C135.685 33.2317 135.242 32.8123 134.706 32.8123ZM134.706 34.5365C134.287 34.5598 133.937 34.2336 133.914 33.8142C133.891 33.3948 134.217 33.0453 134.636 33.022C135.056 32.9987 135.405 33.3249 135.428 33.7443C135.428 33.7676 135.428 33.7676 135.428 33.7909C135.452 34.187 135.125 34.5365 134.729 34.5365C134.729 34.5365 134.729 34.5365 134.706 34.5365Z" fill="#0091E2"/>
<path d="M134.939 33.7908C135.056 33.7675 135.125 33.6743 135.125 33.5578C135.125 33.4646 135.102 33.3947 135.032 33.3481C134.939 33.3015 134.823 33.2782 134.706 33.2782C134.59 33.2782 134.45 33.2782 134.333 33.3015V34.2568H134.543V33.884H134.636C134.753 33.884 134.823 33.9306 134.846 34.0238C134.869 34.0937 134.892 34.1869 134.916 34.2568H135.149C135.102 34.1869 135.079 34.0937 135.079 34.0238C135.102 33.9306 135.032 33.8374 134.939 33.7908ZM134.659 33.7209H134.543V33.4413C134.59 33.4413 134.636 33.4413 134.659 33.4413C134.799 33.4413 134.869 33.5112 134.869 33.5811C134.892 33.6743 134.776 33.7442 134.659 33.7209Z" fill="#0091E2"/>
<path d="M49.7506 16.7346C49.6108 16.6181 48.3526 15.6628 45.6497 15.6628C44.9506 15.6628 44.2283 15.7327 43.5293 15.8492C43.0166 12.2841 40.0574 10.5599 39.9409 10.4667L39.2186 10.0472L38.7526 10.723C38.17 11.6317 37.7273 12.6569 37.471 13.7055C36.9817 15.7327 37.2846 17.6434 38.3098 19.2744C37.0749 19.9734 35.071 20.1366 34.6516 20.1599H1.56421C0.702071 20.1599 0.00304118 20.8589 0.00304118 21.721C-0.0435608 24.6103 0.44576 27.4997 1.4477 30.2259C2.58945 33.2084 4.29042 35.422 6.48071 36.7734C8.95062 38.288 12.9817 39.1502 17.5254 39.1502C19.5759 39.1502 21.6263 38.9637 23.6535 38.5909C26.473 38.0783 29.1759 37.0997 31.6691 35.6783C33.7196 34.49 35.5603 32.9754 37.1215 31.2045C39.7545 28.2453 41.3157 24.9366 42.4574 22.0006C42.6205 22.0006 42.7603 22.0006 42.9234 22.0006C45.7895 22.0006 47.5603 20.8589 48.539 19.8802C49.1914 19.2744 49.6807 18.5288 50.0302 17.69L50.2399 17.0841L49.7506 16.7346Z" fill="#0091E2"/>
<path d="M4.64001 19.2046H9.0672C9.27691 19.2046 9.46331 19.0415 9.46331 18.8084V14.8473C9.46331 14.6376 9.30021 14.4512 9.0672 14.4512H4.64001C4.4303 14.4512 4.2439 14.6143 4.2439 14.8473V18.8084C4.2672 19.0415 4.4303 19.2046 4.64001 19.2046Z" fill="#0091E2"/>
<path d="M10.745 19.2046H15.1722C15.3819 19.2046 15.5683 19.0415 15.5683 18.8084V14.8473C15.5683 14.6376 15.4052 14.4512 15.1722 14.4512H10.745C10.5353 14.4512 10.3489 14.6143 10.3489 14.8473V18.8084C10.3722 19.0415 10.5353 19.2046 10.745 19.2046Z" fill="#0091E2"/>
<path d="M16.9664 19.2046H21.3936C21.6033 19.2046 21.7897 19.0415 21.7897 18.8084V14.8473C21.7897 14.6376 21.6266 14.4512 21.3936 14.4512H16.9664C16.7567 14.4512 16.5703 14.6143 16.5703 14.8473V18.8084C16.5703 19.0415 16.7334 19.2046 16.9664 19.2046Z" fill="#0091E2"/>
<path d="M23.0944 19.2046H27.5215C27.7312 19.2046 27.9177 19.0415 27.9177 18.8084V14.8473C27.9177 14.6376 27.7545 14.4512 27.5215 14.4512H23.0944C22.8846 14.4512 22.6982 14.6143 22.6982 14.8473V18.8084C22.6982 19.0415 22.8846 19.2046 23.0944 19.2046Z" fill="#0091E2"/>
<path d="M10.745 13.5423H15.1722C15.3819 13.5423 15.5683 13.3559 15.5683 13.1462V9.18506C15.5683 8.97535 15.4052 8.78894 15.1722 8.78894H10.745C10.5353 8.78894 10.3489 8.95205 10.3489 9.18506V13.1462C10.3722 13.3559 10.5353 13.5423 10.745 13.5423Z" fill="#0091E2"/>
<path d="M16.9664 13.5423H21.3936C21.6033 13.5423 21.7897 13.3559 21.7897 13.1462V9.18506C21.7897 8.97535 21.6266 8.78894 21.3936 8.78894H16.9664C16.7567 8.78894 16.5703 8.95205 16.5703 9.18506V13.1462C16.5703 13.3559 16.7334 13.5423 16.9664 13.5423Z" fill="#0091E2"/>
<path d="M23.0944 13.5423H27.5215C27.7312 13.5423 27.9177 13.3559 27.9177 13.1462V9.18506C27.9177 8.97535 27.7312 8.78894 27.5215 8.78894H23.0944C22.8846 8.78894 22.6982 8.95205 22.6982 9.18506V13.1462C22.6982 13.3559 22.8846 13.5423 23.0944 13.5423Z" fill="#0091E2"/>
<path d="M23.0944 7.85691H27.5215C27.7312 7.85691 27.9177 7.69381 27.9177 7.4608V3.49963C27.9177 3.28993 27.7312 3.10352 27.5215 3.10352H23.0944C22.8846 3.10352 22.6982 3.26663 22.6982 3.49963V7.4608C22.6982 7.67051 22.8846 7.85691 23.0944 7.85691Z" fill="#0091E2"/>
<path d="M29.2692 19.2046H33.6964C33.9061 19.2046 34.0925 19.0415 34.0925 18.8084V14.8473C34.0925 14.6376 33.9294 14.4512 33.6964 14.4512H29.2692C29.0595 14.4512 28.873 14.6143 28.873 14.8473V18.8084C28.8963 19.0415 29.0595 19.2046 29.2692 19.2046Z" fill="#0091E2"/>
</svg>
